<svg width="164" height="55" viewBox="0 0 164 55" fill="none" xmlns="http://www.w3.org/2000/svg">
<path d="M161.748 54.3773V49.945H160.581V49.3841H163.608V49.945H162.441V54.3773H161.748ZM157.5 54.3773H156.838V49.3841H157.936L159.245 53.6943V49.3841H159.888V54.3773H158.799L157.5 50.0897V54.3773ZM153.738 54.3773V49.3841H156.012V49.945H154.432V51.5279H155.915V52.0888H154.432V53.8119H156.058V54.3728H153.738V54.3773ZM149.366 54.3773H148.723V49.3841H149.853L150.772 53.4094L151.663 49.3841H152.792V54.3773H152.149V50.0399L151.111 54.3773H150.413L149.371 50.0264V54.3773H149.366ZM145.6 54.3773V49.3841H147.874V49.945H146.294V51.5279H147.777V52.0888H146.294V53.8119H147.92V54.3728H145.6V54.3773ZM143.276 54.4406C142.712 54.4406 142.326 54.3185 142.115 54.0788C141.903 53.8346 141.793 53.3958 141.793 52.7581V50.9174C141.793 50.3565 141.908 49.9495 142.142 49.7007C142.376 49.452 142.753 49.3253 143.276 49.3253C143.768 49.3253 144.126 49.4294 144.351 49.6419C144.576 49.85 144.682 50.1847 144.677 50.637V50.7862H143.984V50.637C143.988 50.3746 143.933 50.1847 143.823 50.0671C143.713 49.9495 143.529 49.8907 143.276 49.8907C142.996 49.8907 142.794 49.9721 142.67 50.1349C142.546 50.2977 142.487 50.5646 142.487 50.9264V52.7672C142.487 53.1878 142.542 53.4818 142.656 53.6401C142.771 53.7984 142.978 53.8798 143.276 53.8798C143.538 53.8798 143.777 53.8391 143.984 53.7622V52.2968H143.208V51.736H144.677V54.2099C144.342 54.3637 143.878 54.4406 143.281 54.4451L143.276 54.4406ZM139.414 49.9992L138.849 52.6812H139.979L139.414 49.9992ZM137.811 54.3773L138.973 49.3841H139.896L141.054 54.3773H140.314L140.08 53.2466H138.725L138.486 54.3773H137.811ZM134.707 54.3773H134.045V49.3841H135.143L136.452 53.6943V49.3841H137.095V54.3773H136.006L134.707 50.0897V54.3773ZM131.68 49.9992L131.115 52.6812H132.245L131.68 49.9992ZM130.077 54.3773L131.239 49.3841H132.162L133.32 54.3773H132.58L132.346 53.2466H130.991L130.753 54.3773H130.077ZM125.894 54.3773H125.251V49.3841H126.38L127.299 53.4094L128.19 49.3841H129.32V54.3773H128.677V50.0399L127.639 54.3773H126.941L125.898 50.0264V54.3773H125.894ZM120.699 54.3773H120.006V49.3841H120.699V51.6862L122.164 49.3841H122.927L121.416 51.6229L122.927 54.3773H122.105L120.695 51.6817V54.3773H120.699ZM118.426 50.8314V50.6822C118.426 50.3927 118.38 50.1892 118.284 50.0671C118.187 49.945 118.031 49.8862 117.806 49.8862C117.558 49.8862 117.379 49.9404 117.264 50.0535C117.154 50.1666 117.099 50.343 117.099 50.5917C117.099 50.7907 117.149 50.949 117.246 51.0576C117.342 51.1661 117.563 51.3108 117.903 51.4872C118.431 51.7631 118.78 51.9983 118.945 52.1973C119.11 52.3963 119.193 52.6677 119.193 53.0159C119.193 53.4953 119.069 53.8526 118.821 54.0878C118.573 54.3275 118.206 54.4451 117.71 54.4451C117.182 54.4451 116.805 54.323 116.589 54.0788C116.387 53.8572 116.286 53.4908 116.286 52.9933V52.8576V52.7084H116.989V52.8576C116.984 53.2466 117.035 53.5134 117.136 53.6627C117.237 53.8074 117.425 53.8843 117.705 53.8843C117.985 53.8843 118.187 53.821 118.311 53.6943C118.435 53.5677 118.5 53.3642 118.5 53.0747C118.5 52.8576 118.444 52.6903 118.33 52.5637C118.215 52.4415 117.967 52.2832 117.581 52.0842C117.126 51.8491 116.814 51.6229 116.635 51.4149C116.46 51.2068 116.373 50.9535 116.373 50.6596C116.373 50.2163 116.493 49.8862 116.727 49.6646C116.966 49.4429 117.324 49.3344 117.797 49.3344C118.27 49.3344 118.642 49.4339 118.839 49.6374C119.023 49.8274 119.115 50.1394 119.115 50.5782V50.6912L119.11 50.8405H118.412L118.426 50.8314ZM114.784 54.3773V49.3841H115.478V54.3773H114.784ZM111.831 51.5551H112.382C112.731 51.5551 112.966 51.4918 113.094 51.3561C113.223 51.2249 113.282 50.9762 113.282 50.6143V50.6641C113.282 50.3882 113.218 50.2028 113.09 50.0987C112.961 49.9947 112.727 49.945 112.382 49.945H111.831V51.5505V51.5551ZM111.138 54.3773V49.3841H112.745C113.163 49.3841 113.475 49.4836 113.677 49.6872C113.879 49.8907 113.98 50.2028 113.98 50.6279V50.5782C113.98 51.035 113.866 51.3651 113.641 51.5641C113.489 51.6998 113.273 51.7903 112.984 51.8355C113.292 51.8581 113.503 51.9305 113.622 52.0481C113.765 52.1928 113.838 52.4687 113.847 52.8848C113.852 53.1833 113.866 53.4365 113.889 53.6401L113.902 53.7577C113.921 53.8888 113.935 53.9974 113.953 54.0923C113.971 54.1828 113.994 54.2778 114.022 54.3773H113.296C113.264 54.2235 113.237 54.1059 113.223 54.02C113.209 53.934 113.195 53.8662 113.191 53.8119L113.181 53.7034C113.158 53.4953 113.149 53.2647 113.145 53.0114C113.14 52.6903 113.08 52.4596 112.961 52.3194C112.842 52.1837 112.649 52.1159 112.378 52.1159H111.84V54.3773H111.142H111.138ZM106.21 54.3773H105.549V49.3841H106.646L107.955 53.6943V49.3841H108.598V54.3773H107.51L106.21 50.0897V54.3773ZM103.211 53.8753C103.473 53.8753 103.666 53.7984 103.78 53.6446C103.9 53.4908 103.955 53.2421 103.955 52.8938V50.7998C103.955 50.456 103.9 50.2163 103.794 50.0852C103.689 49.954 103.491 49.8862 103.206 49.8862C102.945 49.8862 102.752 49.9676 102.637 50.1304C102.517 50.2932 102.462 50.5601 102.462 50.9219V52.7627C102.462 53.1833 102.517 53.4773 102.623 53.6355C102.729 53.7938 102.926 53.8753 103.211 53.8753ZM103.211 54.4406C102.664 54.4406 102.283 54.3185 102.077 54.0788C101.87 53.8346 101.769 53.3958 101.769 52.7581V50.9174C101.769 50.3565 101.884 49.9495 102.104 49.7007C102.329 49.452 102.697 49.3253 103.206 49.3253C103.716 49.3253 104.097 49.452 104.318 49.6962C104.538 49.945 104.648 50.3565 104.648 50.94V53.034C104.648 53.5315 104.534 53.8888 104.313 54.1059C104.088 54.3275 103.721 54.4361 103.211 54.4361V54.4406ZM100.129 54.3773V49.3841H100.823V54.3773H100.129ZM97.5667 54.3773V49.945H96.4002V49.3841H99.4267V49.945H98.2601V54.3773H97.5667ZM94.2233 49.9992L93.6584 52.6812H94.7882L94.2233 49.9992ZM92.6251 54.3773L93.787 49.3841H94.7101L95.8674 54.3773H95.128L94.8938 53.2466H93.539L93.3002 54.3773H92.6251ZM88.4412 54.3773H87.7983V49.3841H88.928L89.8466 53.4094L90.7375 49.3841H91.8673V54.3773H91.2243V50.0399L90.1864 54.3773H89.4883L88.4458 50.0264V54.3773H88.4412ZM84.8269 51.5551H85.378C85.727 51.5551 85.9612 51.4918 86.0898 51.3561C86.2184 51.2249 86.2781 50.9762 86.2781 50.6143V50.6641C86.2781 50.3882 86.2138 50.2028 86.0852 50.0987C85.9567 49.9947 85.7224 49.945 85.378 49.945H84.8269V51.5505V51.5551ZM84.1334 54.3773V49.3841H85.7408C86.1587 49.3841 86.471 49.4836 86.6731 49.6872C86.8752 49.8907 86.9762 50.2028 86.9762 50.6279V50.5782C86.9762 51.035 86.8614 51.3651 86.6364 51.5641C86.4848 51.6998 86.269 51.7903 85.9796 51.8355C86.2873 51.8581 86.4986 51.9305 86.618 52.0481C86.7604 52.1928 86.8338 52.4687 86.843 52.8848C86.8476 53.1833 86.8614 53.4365 86.8844 53.6401L86.8981 53.7577C86.9165 53.8888 86.9303 53.9974 86.9486 54.0923C86.967 54.1828 86.99 54.2778 87.0175 54.3773H86.2919C86.2598 54.2235 86.2322 54.1059 86.2184 54.02C86.2047 53.934 86.1909 53.8662 86.1863 53.8119L86.1771 53.7034C86.1541 53.4953 86.145 53.2647 86.1404 53.0114C86.1358 52.6903 86.0761 52.4596 85.9567 52.3194C85.8372 52.1837 85.6444 52.1159 85.3734 52.1159H84.8361V54.3773H84.138H84.1334ZM81.7682 53.8753C82.03 53.8753 82.2229 53.7984 82.3377 53.6446C82.4571 53.4908 82.5122 53.2421 82.5122 52.8938V50.7998C82.5122 50.456 82.4571 50.2163 82.3515 50.0852C82.2459 49.954 82.0484 49.8862 81.7636 49.8862C81.5019 49.8862 81.309 49.9676 81.1942 50.1304C81.0748 50.2932 81.0196 50.5601 81.0196 50.9219V52.7627C81.0196 53.1833 81.0748 53.4773 81.1804 53.6355C81.286 53.7938 81.4835 53.8753 81.7682 53.8753ZM81.7682 54.4406C81.2217 54.4406 80.8405 54.3185 80.6339 54.0788C80.4272 53.8346 80.3262 53.3958 80.3262 52.7581V50.9174C80.3262 50.3565 80.441 49.9495 80.6614 49.7007C80.8865 49.452 81.2539 49.3253 81.7636 49.3253C82.2734 49.3253 82.6546 49.452 82.875 49.6962C83.0955 49.945 83.2057 50.3565 83.2057 50.94V53.034C83.2057 53.5315 83.0909 53.8888 82.8705 54.1059C82.6454 54.3275 82.278 54.4361 81.7682 54.4361V54.4406ZM77.3456 54.3773V49.3841H79.5592V49.945H78.0391V51.5279H79.4903V52.0888H78.0391V54.3773H77.3456ZM74.0435 54.3773H73.3822V49.3841H74.4798L75.7887 53.6943V49.3841H76.4317V54.3773H75.3432L74.0435 50.0897V54.3773ZM71.7656 54.3773V49.3841H72.4591V54.3773H71.7656Z" fill="#6D6E71"/>
<path d="M123.221 43.5317V16.7071C123.221 13.3964 124.24 10.6873 126.293 8.56613C128.341 6.45399 130.996 5.39567 134.266 5.39567C138.119 5.39567 141.095 7.15502 143.203 10.6602C144.471 8.7787 145.83 7.43996 147.286 6.62134C148.732 5.80272 150.537 5.39114 152.7 5.39114C156.09 5.39114 158.689 6.44043 160.503 8.55256C162.308 10.6556 163.213 13.6995 163.213 17.6524V43.5271H151.979V19.3168C151.979 18.0866 151.874 17.2996 151.676 16.9423C151.506 16.5443 151.121 16.3453 150.505 16.3453C149.398 16.3453 148.843 17.277 148.843 19.1268V43.5226H137.609V19.3122C137.609 18.1137 137.504 17.3222 137.306 16.9287C137.099 16.5398 136.7 16.3408 136.117 16.3408C135.01 16.3408 134.454 17.3267 134.454 19.3077V43.5181H123.221V43.5317ZM101.319 16.3272V43.5317H90.0854V6.32736H104.501C108.897 6.32736 112.304 7.39925 114.715 9.54757C117.416 11.9492 118.757 14.9885 118.757 18.6745C118.757 22.3606 117.085 25.6079 113.751 28.1904L120.222 43.5317H108.433L102.981 31.5373V21.9626H103.868C106.228 21.9626 107.409 20.9676 107.409 18.9685C107.409 17.2091 106.04 16.3272 103.307 16.3272H101.314H101.319ZM82.5306 14.7804V43.5317H71.2972V19.1132C77.0425 19.1675 81.0931 16.585 82.5306 14.7804Z" fill="#0095DA"/>
<path fill-rule="evenodd" clip-rule="evenodd" d="M64.5829 7.82439C64.5691 7.87867 64.491 7.98721 64.4543 8.04601C64.4267 8.09124 64.4083 8.11385 64.3854 8.15908L63.6506 9.4345C63.6368 9.46164 63.6368 9.4752 63.623 9.49782L63.1684 10.3978C63.0444 10.6421 62.9387 10.9044 62.8331 11.1577C62.7964 11.2481 62.7596 11.325 62.7275 11.4155L62.53 11.9356C62.4657 12.121 62.4198 12.2658 62.2866 12.424C62.2544 12.4648 62.2315 12.4783 62.1993 12.519C62.0983 12.6547 61.8181 12.8175 61.6666 12.9035C61.5058 12.9894 61.3589 13.0844 61.2349 13.2065C60.918 13.514 60.941 13.8352 61.189 14.1834C61.2349 14.2467 61.3084 14.3191 61.3773 14.3643C61.4186 14.3915 61.4507 14.4095 61.4921 14.4322C61.538 14.4638 61.5518 14.4729 61.6115 14.4955C61.7033 14.5317 61.7722 14.5633 61.887 14.5859C62.1993 14.6583 62.53 14.6221 62.7872 14.4548C63.1959 14.1925 63.2832 13.713 63.4531 13.2924C63.6276 12.8537 63.77 12.406 63.9583 11.9718C64.1282 11.5783 64.39 10.9361 64.5829 10.6014L64.7069 10.3617C64.7712 10.2441 64.8217 10.1174 64.8906 9.99985C65.0008 9.80989 65.1018 9.60636 65.2212 9.41641C65.5289 8.9189 65.7999 8.44401 66.1535 7.97364C66.3602 7.69323 66.576 7.42187 66.7965 7.15502C66.7919 7.23191 66.7551 7.31332 66.7414 7.40378C66.6954 7.67062 66.6679 7.92842 66.6311 8.2043C66.5669 8.66563 66.6311 9.46164 66.7046 9.92296L66.8057 10.4295L66.9343 10.9089C66.971 11.0627 67.0261 11.2255 67.095 11.3702L67.2741 11.7999C67.343 11.9673 67.444 12.1436 67.5359 12.3019C67.5588 12.3381 67.568 12.3653 67.591 12.4014C67.7104 12.5959 67.8206 12.7859 67.9538 12.9668C68.0824 13.1432 68.211 13.3196 68.3534 13.4824C68.5187 13.6769 68.6932 13.8623 68.8815 14.0342C68.9917 14.1337 69.0882 14.2422 69.2076 14.3372L69.3729 14.4729C69.676 14.7397 70.0296 14.9478 70.3741 15.1513C70.443 15.192 70.5119 15.2236 70.5808 15.2689C70.6175 15.2915 70.6359 15.3005 70.6818 15.3231C70.7874 15.3684 70.8839 15.4272 70.9895 15.4724L71.4212 15.6533C72.0412 15.8975 72.7209 16.0649 73.4098 16.1372C73.5751 16.1553 74.0895 16.187 74.2824 16.187C74.388 16.187 74.4661 16.1689 74.5901 16.1734C74.9529 16.1734 75.3524 16.0965 75.7015 16.0423C76.1791 15.9654 76.6889 15.8026 77.1343 15.6171C77.5615 15.4407 77.961 15.2236 78.3514 14.9839C78.48 14.9071 78.5902 14.8166 78.7142 14.7352L79.224 14.3281C79.3112 14.2603 79.3847 14.1834 79.4674 14.1156C79.6327 13.9708 79.7705 13.7944 79.922 13.6407C79.9588 13.6045 79.9634 13.6 79.9955 13.5593L80.1333 13.3919C80.1838 13.3331 80.2251 13.2879 80.2711 13.2246L80.5237 12.8673C80.5696 12.7994 80.5971 12.7497 80.6431 12.6818C81.1988 11.8542 81.5708 10.7144 81.6856 9.72396C81.7223 9.39832 81.7177 9.15861 81.7453 8.87368C81.7545 8.77417 81.7315 8.68824 81.7315 8.57065C81.7315 7.99626 81.58 7.31332 81.4192 6.75702C81.3917 6.66204 81.3687 6.61229 81.3365 6.51731C81.2814 6.35449 81.2309 6.22786 81.1666 6.0786L80.9737 5.66251C80.8176 5.35948 80.6614 5.06098 80.464 4.78961L80.2711 4.52277C80.1471 4.34186 79.9863 4.18356 79.8531 4.0117C79.8072 3.9529 79.7567 3.9122 79.7016 3.85792C79.6694 3.82174 79.6649 3.80817 79.6327 3.77651L79.3893 3.54585C79.5546 3.55942 79.844 3.67249 80.0185 3.71772C80.2206 3.76747 80.4456 3.84435 80.6385 3.90767C80.9875 4.02074 81.332 4.14738 81.6718 4.28306C81.7361 4.3102 81.7591 4.32377 81.8234 4.34638C81.9703 4.39613 82.2551 4.51825 82.3974 4.58609L82.8062 4.77152C82.9026 4.81675 82.9899 4.85746 83.0771 4.91173C83.2057 4.98862 83.3665 5.02932 83.4951 5.10621L84.0324 5.3821C83.9956 5.82081 83.8211 6.86104 83.7063 7.31784C83.6788 7.43543 83.642 7.55303 83.6145 7.68419C83.5318 8.07767 83.3848 8.5209 83.2516 8.90081L82.8108 10.0586C82.6959 10.3526 82.5444 10.624 82.4112 10.9089C82.3974 10.9361 82.3882 10.9587 82.3745 10.9903L82.0576 11.5692C81.9014 11.8587 81.7177 12.1436 81.534 12.415C81.5157 12.4421 81.5111 12.4467 81.4881 12.4738L80.9554 13.2065C80.9232 13.2472 80.8911 13.2879 80.8543 13.3331L80.6477 13.5864C80.6109 13.6316 80.5788 13.6588 80.542 13.7085C80.4777 13.7944 80.3997 13.8668 80.3308 13.9527C80.2986 13.9935 80.2573 14.0296 80.216 14.0658C80.1654 14.111 80.1517 14.1427 80.1103 14.1879C79.8164 14.5 79.4857 14.7895 79.1643 15.0744C79.0173 15.201 78.8198 15.3593 78.6499 15.4588C78.5948 15.4905 78.5626 15.5176 78.5075 15.5493L78.2182 15.7166C77.938 15.884 77.5936 16.0423 77.2813 16.1599L76.7761 16.3453C76.5557 16.4312 76.3077 16.4855 76.0827 16.5533C75.752 16.6574 74.9253 16.8157 74.5625 16.8745C74.1676 16.9378 73.7496 16.983 73.3547 17.0328C73.2123 17.0508 73.0837 17.0554 72.9367 17.078C72.8357 17.0915 71.5544 17.1775 71.4212 17.1775C71.3477 17.1775 71.2696 17.173 71.1962 17.1775C70.9573 17.2091 69.2489 17.2046 68.9137 17.2046C68.7483 17.2046 68.6381 17.191 68.4682 17.191C68.1467 17.191 67.8711 17.173 67.5588 17.1775C67.4027 17.1775 67.2833 17.1639 67.1134 17.1639C67.0169 17.1639 66.994 17.1458 66.8975 17.1458H66.6679V17.2046C66.7735 17.2046 67.3797 17.3132 67.5083 17.3313C67.9125 17.3901 69.552 17.5574 69.9745 17.5529C70.0756 17.5529 70.1077 17.5664 70.2042 17.571C70.3557 17.571 70.6083 17.58 70.8839 17.5845H72.0825C72.0825 17.5845 72.1193 17.5845 72.1376 17.58C72.2846 17.5574 72.4545 17.5845 72.5969 17.5664C72.8219 17.5348 73.0607 17.5483 73.295 17.5257L73.9747 17.4669C74.1078 17.4579 74.2594 17.4353 74.4018 17.4172C74.5533 17.3946 74.6773 17.3765 74.8335 17.3584C75.7474 17.2408 77.1435 16.9423 77.9794 16.6076L78.8336 16.2367C79.0816 16.1282 79.5363 15.8568 79.7613 15.6985L80.0414 15.5041C80.3583 15.2689 80.7074 15.0111 80.9875 14.7397L81.2125 14.5226C81.7499 13.998 82.2597 13.4236 82.6776 12.7994C82.8383 12.5552 83.0036 12.32 83.1552 12.0713C83.1874 12.017 83.2103 11.9718 83.2471 11.922C83.2884 11.8632 83.3022 11.827 83.3389 11.7682C83.4262 11.628 83.5364 11.4562 83.5961 11.3114C83.642 11.1984 83.913 10.7009 84.0048 10.5019L84.1518 10.1627C84.4549 9.52948 84.735 8.7199 84.9325 8.05505C84.9509 7.99626 84.9647 7.93294 84.9876 7.8651C85.0106 7.80178 85.0244 7.74298 85.0427 7.67514C85.0979 7.41282 85.1851 7.1505 85.2356 6.89722C85.3183 6.48113 85.3918 6.06504 85.4377 5.64442C85.5847 5.54492 85.9521 5.36401 86.1312 5.25546L86.9257 4.73534C87.0543 4.64036 87.1829 4.54086 87.2931 4.43231C87.3712 4.35995 87.4401 4.28759 87.5044 4.20165C87.5595 4.12929 87.6238 4.03431 87.633 3.91672V3.84888C87.6146 3.67249 87.4676 3.61822 87.3253 3.5549L85.5984 2.83125C84.8407 2.53275 84.0875 2.26139 83.3022 2.03072L82.9577 1.93122C82.6271 1.84077 82.2597 1.7277 81.9198 1.65081L81.557 1.5694C81.4422 1.54226 81.309 1.51965 81.185 1.49704C80.8727 1.43372 80.5604 1.37492 80.2435 1.33422C80.17 1.32517 80.1287 1.3116 80.0598 1.28899C80.1471 1.28899 80.2251 1.2709 80.3032 1.25281C80.3767 1.23924 80.464 1.22115 80.5512 1.20758L84.0737 0.678416C84.0462 0.578915 83.7982 0.556301 83.6925 0.53821C82.6684 0.339208 82.03 0.226139 80.9554 0.117592C80.8911 0.113069 80.7854 0.0995009 80.7211 0.0904554C80.3032 0.0497505 79.8807 0.0135683 79.4628 0.0135683C79.3663 0.0135683 79.3158 0 79.2423 0H78.1815C77.7222 0.00904554 77.2492 0.0271366 76.9047 0.0723643L75.9541 0.180911C75.357 0.262321 74.7554 0.379913 74.1767 0.520119C73.8323 0.601528 73.4787 0.696507 73.1434 0.805053C73.0745 0.827667 73.0056 0.845758 72.9322 0.868372C72.8541 0.895509 72.8219 0.909077 72.7347 0.931691C72.4407 1.01762 71.885 1.23019 71.5865 1.36135C71.5222 1.38849 71.4717 1.41563 71.3936 1.44729L71.0354 1.60558C70.9114 1.6689 70.8012 1.71413 70.668 1.77293C70.3144 1.93575 69.3316 2.49205 68.9825 2.71819C68.6611 2.92623 68.3442 3.14333 68.0365 3.36042C67.9308 3.43278 67.8436 3.50062 67.738 3.58203C67.6323 3.65892 67.5313 3.72676 67.4348 3.8127C67.2466 3.97552 67.0399 4.12024 66.8562 4.28759C66.7184 4.4097 66.5714 4.52277 66.4429 4.64941L65.7586 5.29164C65.708 5.34139 65.6851 5.37305 65.6346 5.42732L65.2442 5.82985C65.1018 5.96553 64.9411 6.15549 64.8079 6.30474C64.7069 6.41781 64.615 6.54897 64.5094 6.66204C64.1925 6.99673 63.4439 8.02792 63.2143 8.38522L63.0535 8.6204C62.8744 8.88724 62.7137 9.16313 62.5438 9.43902C62.4749 9.55209 62.4244 9.65611 62.3555 9.76918C62.2636 9.92296 61.9743 10.4612 61.9054 10.6285L61.8273 10.823C61.9192 10.8411 61.9375 10.7416 61.9927 10.6692L62.7826 9.66064C63.003 9.40284 63.2235 9.14956 63.4669 8.90986L63.6368 8.72895C63.7883 8.57517 64.4267 7.95555 64.5783 7.85605" fill="#0095DA"/>
<path fill-rule="evenodd" clip-rule="evenodd" d="M74.884 2.95337C78.6178 2.95337 81.1299 5.3821 81.1299 9.05911C81.1299 12.7361 78.1034 15.7166 74.3696 15.7166C70.6359 15.7166 67.4211 12.3653 67.6094 9.05911C67.7977 5.74844 71.1502 2.95337 74.884 2.95337Z" fill="white"/>
<path fill-rule="evenodd" clip-rule="evenodd" d="M71.2696 7.83796C71.2696 8.39879 71.2926 8.71538 71.4809 9.23098C71.5498 9.41641 71.7381 9.7918 71.8483 9.94557C72.1514 10.3662 72.1376 10.3345 72.4545 10.6511C72.5004 10.6964 72.5234 10.7099 72.5693 10.7506C72.9 11.0401 73.5797 11.3883 74.0389 11.4697C74.1629 11.4924 74.7829 11.5647 74.9115 11.5647C75.2055 11.5647 75.4626 11.5285 75.706 11.4697C75.8714 11.429 76.0643 11.3748 76.2112 11.316C76.3903 11.2436 76.6383 11.1215 76.8037 11.0175C76.8542 10.9858 76.8863 10.9587 76.9414 10.927C76.9966 10.8908 77.0149 10.8727 77.0654 10.8366C77.116 10.8049 77.1481 10.7732 77.194 10.7371C77.3364 10.624 77.5293 10.4295 77.6487 10.2893C77.8048 10.1084 77.9748 9.84155 78.0942 9.62446C78.1906 9.44807 78.356 9.00484 78.3927 8.81036L78.4845 7.97817C78.4845 7.72489 78.4432 7.42639 78.3927 7.22287C78.2687 6.74798 78.1263 6.41329 77.86 6.01981C77.736 5.8389 77.6165 5.69417 77.465 5.54492C77.3502 5.43185 77.2583 5.34139 77.1297 5.24189C77.0149 5.15144 76.868 5.03837 76.744 4.97053C76.4868 4.83484 76.45 4.80318 76.1561 4.69012L75.8209 4.58157L75.0585 4.4685C74.7049 4.44136 74.2915 4.50016 73.9701 4.57705C73.373 4.72177 72.8219 5.03837 72.381 5.45446L72.28 5.55396C72.0595 5.78915 72.0641 5.77106 71.8483 6.08313C71.5222 6.56254 71.2696 7.28166 71.2696 7.84701" fill="#D2AB67"/>
<path fill-rule="evenodd" clip-rule="evenodd" d="M73.3317 9.48877C73.8599 9.51591 74.5993 9.1767 75.0907 8.99579L75.6326 8.79679C75.5959 8.85559 75.4994 8.96413 75.4535 9.01841C75.0447 9.4933 74.5396 10.122 74.1492 10.6059C74.2502 10.7054 74.5993 10.8547 74.7692 10.8954C75.0447 10.9632 75.3295 10.9994 75.6234 10.9587C77.2813 10.719 77.9748 8.88725 77.0471 7.65705C76.4271 6.83843 75.3616 6.58516 74.3926 7.03743C73.7634 7.33141 73.3317 7.9646 73.2445 8.66111C73.2215 8.85559 73.2353 9.335 73.3271 9.48425" fill="#FFFFFD"/>
<path fill-rule="evenodd" clip-rule="evenodd" d="M32.2744 41.2477C30.892 42.2563 29.0733 42.4101 27.6634 41.7543C27.6634 41.7543 27.2776 41.605 26.9194 41.198C26.6117 40.8181 18.8273 32.1705 18.8273 32.1705L18.7998 32.1434C21.2063 32.573 23.847 31.4378 25.2018 29.3709C26.5566 27.4035 26.5061 24.6039 25.2294 22.6365C23.6908 20.4927 20.6965 19.7872 18.1844 20.1128C13.8306 20.7189 10.7077 24.527 9.73404 28.5116C8.73286 33.0525 9.45389 37.34 11.0154 41.3744C11.3736 42.2337 11.8604 43.1156 12.4482 43.8709C7.86487 41.9035 3.81882 38.2717 1.69246 33.4052C-0.663528 28.1588 -0.613011 21.5284 2.17927 16.2051C4.3837 12.0939 8.27361 8.28577 13.0912 6.67114C18.1338 4.62685 24.9217 5.05651 29.8403 7.77922C35.806 10.7055 40.3159 17.9962 40.3389 24.4999C40.5456 31.2343 37.5237 37.3355 32.2698 41.2477" fill="#D2AB67"/>
<path fill-rule="evenodd" clip-rule="evenodd" d="M15.5253 43.794C13.2979 41.4241 11.5022 38.3441 12.8616 35.142C14.0648 32.6952 15.1395 30.1986 15.6539 27.3719C15.8559 30.3252 17.6792 32.9439 18.5472 35.7706C18.8824 37.132 18.9054 38.5431 18.3681 39.9587C17.7802 41.4965 16.8296 42.8081 15.7044 43.993L15.5253 43.7895V43.794Z" fill="#D2AB67"/>
<line x1="51.2288" y1="5.64151" x2="51.2288" y2="44.6783" stroke="#E5E5E5"/>
</svg>
